<?xml version="1.0" encoding="utf-8"?>
<!-- Generator: Adobe Illustrator 21.0.0, SVG Export Plug-In . SVG Version: 6.00 Build 0)  -->
<svg version="1.1" id="图层_1" xmlns="http://www.w3.org/2000/svg" xmlns:xlink="http://www.w3.org/1999/xlink" x="0px" y="0px"
	 viewBox="0 0 1916.9 432" style="enable-background:new 0 0 1916.9 432;" xml:space="preserve">
<style type="text/css">
	.st0{fill:#046dd7;}
</style>
<g>
	<path class="st0" d="M95.8,297.1c-8.2,0-17.3,0.1-27.2,0.3l-0.4-4.3l14.8-4.4c1.7-0.5,2.5-1.5,2.6-3.1c0.1-5.1,0.2-11.5,0.2-19.4
		v-99.7H50.5l-8.9,26.6l-4,0.7L35,158l0.7-0.8c16.4,0.3,32.1,0.4,47.1,0.4h26.7c14.9,0,30.7-0.1,47.3-0.4l0.6,0.8l-6.3,35.1l-4,0.7
		l-6.4-27.3h-35.3v99.7c0,7.9,0.1,14.3,0.2,19.4c0.1,1.6,0.9,2.6,2.6,3.1l14.8,4.4l0.2,4.3C112.8,297.2,103.7,297.1,95.8,297.1z" style="fill:#046dd7"/>
	<path class="st0" d="M163.4,153.6c10.9-2.1,21.8-4.5,32.7-7.1l0.9,0.8c-0.3,6.3-0.5,15.2-0.5,26.8c0,11.6,0,24.7,0,39.3
		c11.6-7.5,22.4-11.2,32.4-11.2c9.3,0,16.6,2.6,22.1,7.7c5.5,5.2,8.2,12.7,8.2,22.7v35.3c0,7.7,0.1,13.8,0.2,18.5
		c0.1,1.7,0.9,2.9,2.5,3.5l11.2,3.4l0.2,4.1c-8.8-0.2-16.5-0.3-23-0.3c-6.6,0-13.8,0.1-21.8,0.3l-0.4-4.1l9.9-2.9
		c1.6-0.5,2.5-1.6,2.6-3.1c0.1-0.9,0.1-3,0.1-6.3v-43.6c0-8.2-2-14.1-5.9-17.6c-3.9-3.6-9.7-5.3-17.3-5.3c-6.6,0-13.5,1.6-20.8,4.8
		v44.9c0,8.3,0.1,15.8,0.2,22.7c0.1,1.9,0.9,3,2.5,3.5l10.4,3l0.2,4.1c-8.4-0.2-15.9-0.3-22.4-0.3c-6.6,0-14.3,0.1-23.2,0.3
		l-0.4-4.1l11.3-3.3c1.7-0.5,2.6-1.6,2.7-3.2c0.1-6.4,0.2-14.6,0.2-24.5v-41.8c0-13.6,0-25.6,0-36.1c0-10.5-0.1-18.3-0.4-23.6
		l-13.5-4L163.4,153.6z" style="fill:#046dd7"/>
	<path class="st0" d="M368,290c-5.7,3.5-11.5,6.1-17.5,7.6c-6,1.5-11.6,2.3-16.7,2.3c-14.7,0-26.5-4.2-35.5-12.5
		c-9-8.4-13.5-20-13.5-34.8c0-14.8,4.2-26.9,12.6-36.3c8.4-9.4,19.7-14.1,33.8-14.1c11.8,0,21,3.5,27.6,10.5
		c6.6,7,9.9,16.7,9.9,29.1c0,1.9-0.1,3.8-0.3,5.7h-63.1c0,14.3,3.4,24.6,10.1,30.7c6.7,6.2,17.3,9.2,31.6,9.2
		c6.4,0,13.2-0.6,20.5-1.8L368,290z M348.1,239.3v-3c0-9.5-1.5-16.2-4.5-20.3c-3-4.1-7.4-6.1-13.3-6.1c-7.8,0-13.7,2.9-17.8,8.6
		c-4.1,5.7-6.4,12.7-6.9,20.8H348.1z" style="fill:#046dd7"/>
	<path class="st0" d="M493.7,155.1L538,277.3c1.7,4.6,3.2,7.7,4.5,9.3c1.4,1.6,3.3,2.8,5.8,3.6l9.4,2.8l0.2,4.3
		c-8.7-0.2-16.8-0.3-24.3-0.3c-7.6,0-16.6,0.1-26.9,0.3l-0.4-4.3l9.5-2.8c1.3-0.5,2.3-1,2.8-1.5c0.6-0.6,0.8-1.4,0.8-2.6
		c0-1.3-0.3-3.1-1-5.2c-0.7-2.2-1.7-5-2.9-8.6l-9.4-26.8h-48.2l-10.5,26.7c-1.4,3.7-2.5,6.7-3.3,8.9c-0.8,2.2-1.2,3.9-1.2,5.2
		c0,1.1,0.3,2,0.9,2.5c0.6,0.6,1.6,1,2.8,1.4l9.3,2.7l0.2,4.5c-9.5-0.2-17.2-0.3-23.2-0.3c-6,0-12.7,0.1-20.1,0.3l-0.5-4.3l10.1-3.1
		c2.5-0.8,4.4-2,5.6-3.7c1.2-1.7,2.5-4.3,4-7.8l51.1-121.9L493.7,155.1z M461.8,236.4H503l-19.5-55.1L461.8,236.4z" style="fill:#046dd7"/>
	<path class="st0" d="M562.1,209.2c11.1-2.1,21.7-4.5,31.8-7l1,0.7v11.7c12.3-8.3,24.4-12.4,36.3-12.4l0.5,0.6
		c-1.9,9.9-3.8,20.2-5.7,30.9l-4,0.7c-1.9-5.7-3.7-10.2-5.4-13.6c-1.7-3.4-4.5-5.1-8.2-5.1c-3.6,0-8.1,1.7-13.5,5v43.3
		c0,10.4,0.1,17.8,0.2,22.3c0.1,1.8,0.9,2.9,2.5,3.4l13.3,3.8l0.3,4.1c-10.4-0.2-18.9-0.3-25.4-0.3c-6.6,0-14.3,0.1-23.2,0.3
		l-0.4-4.1l11.6-3.4c1.6-0.5,2.4-1.6,2.5-3.1c0.1-2.9,0.1-7,0.1-12.3v-34.1c0-10.9-0.1-19-0.4-24.3l-13.3-3.6L562.1,209.2z" style="fill:#046dd7"/>
	<path class="st0" d="M670.9,215.4c-0.4,22.5-0.6,40.7-0.6,54.5c0,6.9,1,11.7,3.1,14.3c2.1,2.6,6,3.9,11.8,3.9
		c4.6,0,10.6-0.6,18-1.8l0.6,4.5c-11.5,5.8-21.8,8.7-30.9,8.7c-7.4,0-12.9-1.9-16.5-5.8s-5.4-9.8-5.4-17.6c0-12.9,0.2-33.3,0.7-61.3
		l-13.8-3.4l-0.6-4.1l15.4-1.3l7-24.2c3.8-1,7.3-2,10.4-2.9l1,0.7c-0.2,8.1-0.3,15.6-0.3,22.6v3.7H701v9.5H670.9z" style="fill:#046dd7"/>
	<path class="st0" d="M851.1,249.1c0,15.2-4.6,27.5-13.8,36.8c-9.2,9.4-20.8,14-35,14c-13.8,0-25-4.4-33.5-13.2
		c-8.5-8.8-12.8-20.4-12.8-34.6c0-14.7,4.5-26.6,13.4-35.9c8.9-9.3,20.7-13.9,35.4-13.9c13.9,0,25,4.3,33.5,12.8
		C846.9,223.6,851.1,234.9,851.1,249.1z M776.6,250c0,12.5,2.3,22.6,7,30.4c4.6,7.8,11.5,11.7,20.7,11.7c8.6,0,15.1-3.4,19.6-10.3
		c4.5-6.9,6.7-17.1,6.7-30.6c0-12.7-2.4-22.7-7.1-30.1c-4.7-7.3-11.5-11-20.5-11c-8.5,0-15,3.3-19.6,9.9
		C778.9,226.6,776.6,236.6,776.6,250z" style="fill:#046dd7"/>
	<path class="st0" d="M897.6,215.4v54.3c0,6.3,0.1,11.8,0.2,16.5c0.1,1.8,1,2.9,2.6,3.4l12.7,3.8l0.3,4.1
		c-10.1-0.2-18.3-0.3-24.8-0.3c-6.6,0-14.4,0.1-23.3,0.3l-0.5-4.1l11.2-3.2c1.9-0.6,2.8-1.7,2.9-3.3c0.1-4.1,0.2-8.5,0.2-13.1v-58.9
		l-13.6-3.4l-0.7-4.2l14.4-1.2v-0.4c0-18.8,4.1-33.3,12.3-43.7c8.2-10.3,19.2-15.5,32.9-15.5c6.7,0,13.2,0.8,19.5,2.5
		c-2.3,8.1-4.2,16.5-5.8,25.1l-4.2,0.8l-6.5-20c-1.5-0.2-3.5-0.3-5.8-0.3c-7.7,0-13.6,3.4-17.7,10.3c-4.1,6.9-6.2,19.4-6.2,37.7v3.3
		h24.9v9.5H897.6z" style="fill:#046dd7"/>
	<path d="M1023.3,266.5c0,7.9,0.1,14.3,0.2,19.4c0.1,1.6,0.9,2.6,2.6,3.1l13.8,4.2l0.2,4.3c-9.7-0.2-18.5-0.3-26.4-0.3
		c-7.9,0-16.2,0.1-24.8,0.3l-0.4-4.3l12.3-3.7c1.7-0.5,2.6-1.6,2.7-3.1c0.1-5.4,0.2-12,0.2-19.9v-81c0-3.4,0-6.5,0-9.2
		c0-2.7-0.1-5.2-0.1-7.4c-0.1-1.7-0.9-2.9-2.4-3.4l-12.4-3.9l-0.2-4.3c8.6,0.3,16.9,0.4,24.8,0.4h24.3c14.9,0,30.7-0.1,47.3-0.4
		l0.6,0.8l-5.8,30.9l-4,0.7l-6.2-23.1h-46.2v57.1h9.6c6.9,0,14.7-0.1,23.2-0.2c1.8-0.1,2.9-0.9,3.4-2.6l4.1-13.5l4.8-0.2
		c-0.2,9.3-0.3,16.2-0.3,20.7c0,4.3,0.1,11.1,0.3,20.4l-4.8,0.4l-4.2-13.7c-0.5-1.7-1.5-2.6-3-2.7c-8.7-0.1-16.6-0.2-23.6-0.2h-9.5
		V266.5z"/>
	<path d="M1092.8,209.2c11.7-2.2,22.5-4.5,32.5-7l0.9,0.7c-0.4,8.7-0.6,18.2-0.6,28.6v38.4c0,8,0.1,13.5,0.2,16.6
		c0.1,1.8,1,3,2.5,3.5l11.6,3.4l0.2,4.1c-9.2-0.2-17.1-0.3-23.6-0.3c-6.6,0-14.3,0.1-23.3,0.3l-0.4-4.1l11.6-3.4
		c1.5-0.5,2.4-1.6,2.5-3.1c0.1-2.6,0.2-7,0.2-13.1v-33.4c0-8.7-0.1-16.8-0.4-24.2l-13.3-3.6L1092.8,209.2z M1126.6,166.8
		c0,3.5-1.1,6.4-3.3,8.6c-2.2,2.2-5,3.3-8.5,3.3c-3.3,0-6-1-8.1-3.1c-2.1-2.1-3.1-4.8-3.1-8.2c0-3.6,1.1-6.4,3.3-8.5
		c2.2-2.1,5.1-3.1,8.7-3.1c3.3,0,5.9,0.9,8,2.8C1125.5,160.6,1126.6,163.3,1126.6,166.8z"/>
	<path d="M1150.8,209.2c11.2-2.1,21.8-4.5,31.7-7l1,0.7v11.6c11.6-8.2,22.4-12.3,32.4-12.3c9.5,0,16.9,2.6,22.3,7.9
		c5.4,5.3,8.1,12.8,8.1,22.5v35.3c0,8.3,0.1,14.5,0.2,18.5c0.1,1.8,0.9,3,2.6,3.5l11.1,3.4l0.2,4.1c-8.8-0.2-16.5-0.3-23-0.3
		c-6.6,0-13.8,0.1-21.8,0.3l-0.4-4.1l10-2.9c1.5-0.5,2.4-1.6,2.5-3.1c0.1-0.9,0.1-3,0.1-6.3v-43.6c0-8.2-2-14.1-5.9-17.6
		c-3.9-3.6-9.7-5.3-17.3-5.3c-6.7,0-13.7,1.9-20.8,5.8V264c0,8.3,0.1,16,0.2,22.9c0.1,1.8,0.8,2.9,2.3,3.4l10.4,3.1l0.2,4.1
		c-8.3-0.2-15.7-0.3-22.2-0.3c-6.6,0-14.3,0.1-23.2,0.3l-0.4-4.1l11.8-3.4c1.5-0.6,2.2-1.6,2.3-3.1c0.1-4.3,0.1-8.4,0.1-12.3v-34.1
		c0-8.7-0.1-16.8-0.4-24.3l-13.3-3.6L1150.8,209.2z"/>
	<path d="M1345.3,214.8c5.1,5.5,7.7,12.1,7.7,19.8c0,10.7-3.7,19.3-11.2,25.6c-7.5,6.4-16.8,9.5-28.1,9.5c-6.4,0-12.1-1-17.2-3
		c-3.6,5.8-5.4,10.4-5.4,13.7c0,1.8,0.9,3,2.7,3.6c1.8,0.6,5.2,0.9,10.1,0.9c3.7,0,8.1-0.1,13.1-0.3c5-0.2,9.7-0.3,14-0.3
		c10.6,0,19.4,2,26.3,6c6.9,4,10.4,10,10.4,17.9c0,12-5.9,21.4-17.7,28.4c-11.8,6.9-25.2,10.4-40.2,10.4c-12.3,0-22.1-2-29.5-5.9
		c-7.3-4-11-9.1-11-15.4c0-7.7,5.4-16.3,16.3-25.8c-6.9-2.6-10.3-6.1-10.3-10.4c0-6.1,4.8-14.5,14.3-25.4
		c-10.4-6.3-15.6-15.5-15.6-27.5c0-10.4,3.8-18.8,11.3-25.1c7.5-6.3,17.3-9.5,29.2-9.5c3.1,0,7.4,0.4,12.8,1.2
		c5.1,0.9,9.1,1.4,12,1.4c10.3,0,19.6-0.1,28.1-0.3l0.5,4.1L1345.3,214.8z M1291.4,301.1c-4.5,6.8-6.8,13.1-6.8,18.8
		c0,5.9,2.4,10.4,7.1,13.7c4.7,3.3,11.2,4.9,19.3,4.9c9.7,0,18.1-2.1,25.4-6.4c7.3-4.3,10.9-10.3,10.9-18c0-4.2-1.8-7.4-5.3-9.7
		c-3.6-2.3-10.3-3.4-20.1-3.4c-3.5,0-7.4,0.1-11.5,0.3c-4.2,0.2-8.2,0.3-12,0.3C1296.1,301.4,1293.8,301.3,1291.4,301.1z
		 M1294.5,235.1c0,8.7,1.7,15.4,5,20.1c3.3,4.7,8.2,7.1,14.5,7.1c6.1,0,10.7-2.2,13.8-6.6c3.1-4.4,4.6-10.9,4.6-19.4
		c0-8.2-1.6-14.7-4.9-19.4c-3.3-4.7-8.2-7.1-14.6-7.1c-6.1,0-10.7,2.2-13.8,6.5C1296.1,220.5,1294.5,226.8,1294.5,235.1z"/>
	<path d="M1454,290c-5.7,3.5-11.5,6.1-17.5,7.6c-6,1.5-11.6,2.3-16.7,2.3c-14.7,0-26.5-4.2-35.5-12.5c-9-8.4-13.5-20-13.5-34.8
		c0-14.8,4.2-26.9,12.6-36.3c8.4-9.4,19.7-14.1,33.8-14.1c11.8,0,21,3.5,27.6,10.5c6.6,7,9.9,16.7,9.9,29.1c0,1.9-0.1,3.8-0.3,5.7
		h-63.1c0,14.3,3.4,24.6,10.1,30.7c6.7,6.2,17.3,9.2,31.6,9.2c6.4,0,13.2-0.6,20.5-1.8L1454,290z M1434.1,239.3v-3
		c0-9.5-1.5-16.2-4.5-20.3c-3-4.1-7.4-6.1-13.3-6.1c-7.8,0-13.7,2.9-17.8,8.6c-4.1,5.7-6.4,12.7-6.9,20.8H1434.1z"/>
	<path d="M1466.8,209.2c11.1-2.1,21.7-4.5,31.8-7l1,0.7v11.7c12.3-8.3,24.4-12.4,36.3-12.4l0.5,0.6c-1.9,9.9-3.8,20.2-5.7,30.9
		l-4,0.7c-1.9-5.7-3.7-10.2-5.4-13.6c-1.7-3.4-4.5-5.1-8.2-5.1c-3.6,0-8.1,1.7-13.5,5v43.3c0,10.4,0.1,17.8,0.2,22.3
		c0.1,1.8,0.9,2.9,2.5,3.4l13.3,3.8l0.3,4.1c-10.4-0.2-18.9-0.3-25.4-0.3c-6.6,0-14.3,0.1-23.2,0.3l-0.4-4.1l11.6-3.4
		c1.6-0.5,2.4-1.6,2.5-3.1c0.1-2.9,0.1-7,0.1-12.3v-34.1c0-10.9-0.1-19-0.4-24.3l-13.3-3.6L1466.8,209.2z"/>
	<path d="M1575.6,215.4c-0.4,22.5-0.6,40.7-0.6,54.5c0,6.9,1,11.7,3.1,14.3c2.1,2.6,6,3.9,11.8,3.9c4.6,0,10.6-0.6,18-1.8l0.6,4.5
		c-11.5,5.8-21.8,8.7-30.9,8.7c-7.4,0-12.9-1.9-16.5-5.8c-3.6-3.9-5.4-9.8-5.4-17.6c0-12.9,0.2-33.3,0.7-61.3l-13.8-3.4l-0.6-4.1
		l15.4-1.3l7-24.2c3.8-1,7.3-2,10.4-2.9l1,0.7c-0.2,8.1-0.3,15.6-0.3,22.6v3.7h30.1v9.5H1575.6z"/>
	<path d="M1617.5,209.2c11.7-2.2,22.5-4.5,32.5-7l0.9,0.7c-0.4,8.7-0.6,18.2-0.6,28.6v38.4c0,8,0.1,13.5,0.2,16.6
		c0.1,1.8,1,3,2.5,3.5l11.6,3.4l0.2,4.1c-9.2-0.2-17.1-0.3-23.6-0.3c-6.6,0-14.3,0.1-23.3,0.3l-0.4-4.1l11.6-3.4
		c1.5-0.5,2.4-1.6,2.5-3.1c0.1-2.6,0.2-7,0.2-13.1v-33.4c0-8.7-0.1-16.8-0.4-24.2l-13.3-3.6L1617.5,209.2z M1651.3,166.8
		c0,3.5-1.1,6.4-3.3,8.6c-2.2,2.2-5,3.3-8.5,3.3c-3.3,0-6-1-8.1-3.1c-2.1-2.1-3.1-4.8-3.1-8.2c0-3.6,1.1-6.4,3.3-8.5
		c2.2-2.1,5.1-3.1,8.7-3.1c3.3,0,5.9,0.9,8,2.8C1650.2,160.6,1651.3,163.3,1651.3,166.8z"/>
	<path d="M1673.9,212.6l-0.5-3.4c11.2-2.1,21.8-4.5,31.8-7l1,0.7v9.8c10.3-7,20.2-10.5,29.8-10.5c12.5,0,22.4,4.1,29.7,12.4
		c7.3,8.3,11,19.1,11,32.3c0,16.3-4.7,29.2-14.2,38.7s-22.9,14.2-40.3,14.2c-5.2,0-10.5-0.5-16.1-1.5v21.9c0,6.7,0.1,11.3,0.2,14
		c0.1,2,1,3.2,2.7,3.6l13.1,3.7l0.3,4.1c-10.4-0.2-18.9-0.3-25.4-0.3c-6.6,0-14.3,0.1-23.2,0.3l-0.4-4.1l11.5-3.4
		c1.6-0.5,2.4-1.5,2.5-3.1c0.1-4.9,0.2-12.2,0.2-22.1v-40.7c0-29.5-0.1-48.2-0.4-56L1673.9,212.6z M1706.2,289.4
		c5.8,1.3,11.4,1.9,16.8,1.9c11,0,19.3-3.5,24.9-10.4c5.6-6.9,8.4-16.9,8.4-29.8c0-12.2-2.7-21.4-8-27.6c-5.3-6.2-13-9.3-22.9-9.3
		c-7.2,0-13.6,1.5-19.1,4.4V289.4z"/>
	<path d="M1841.2,212.3c-3.9-1.1-8.1-1.6-12.6-1.6c-6.3,0-11.3,1.2-15.1,3.6c-3.8,2.4-5.7,5.7-5.7,9.9c0,4.1,1.2,7.3,3.7,9.6
		c2.5,2.3,7.1,4.6,13.9,6.9l8.2,2.8c9.2,3.1,15.9,6.7,20.2,10.7c4.3,4,6.4,9.3,6.4,15.8c0,9.3-3.6,16.5-10.8,21.8
		s-16.3,7.9-27.3,7.9c-10.1,0-20.5-2.1-31.1-6.2c2.3-8.7,4.1-17.1,5.5-25.4l3.9-0.6l7.2,21.5c3.8,1.5,8.6,2.2,14.5,2.2
		c6.2,0,11.1-1.3,14.8-3.8c3.7-2.5,5.5-6.1,5.5-10.7c0-4.3-1.2-7.6-3.7-10.1c-2.5-2.5-6.5-4.6-11.9-6.4l-10.4-3.5
		c-9-3-15.2-6.6-18.6-10.8c-3.4-4.2-5.1-9.5-5.1-15.7c0-8.7,3.3-15.6,9.9-20.6c6.6-5,15.4-7.5,26.2-7.5c10.1,0,19.3,1.5,27.6,4.4
		c-1.9,7.6-3.6,15.6-5.1,24.1l-3.8,0.7L1841.2,212.3z"/>
</g>
<g>
</g>
<g>
</g>
<g>
</g>
<g>
</g>
<g>
</g>
<g>
</g>
<g>
</g>
<g>
</g>
<g>
</g>
<g>
</g>
<g>
</g>
<g>
</g>
<g>
</g>
<g>
</g>
<g>
</g>
</svg>
