<?xml version="1.0" encoding="utf-8"?>
<!-- Generator: Adobe Illustrator 21.0.0, SVG Export Plug-In . SVG Version: 6.00 Build 0)  -->
<svg version="1.1" id="图层_1" xmlns="http://www.w3.org/2000/svg" xmlns:xlink="http://www.w3.org/1999/xlink" x="0px" y="0px"
	 viewBox="0 0 1920 400" style="enable-background:new 0 0 1920 400;" xml:space="preserve">
<g>
	<path class="st0" d="M233.3,113.3h-33.6v156.2h-25.1V113.3h-33.5v-33h92.2V113.3z" style="fill:#367EF2;stroke:#FFFFFF;stroke-width:2;stroke-miterlimit:10;"/>
	<path class="st0" d="M326.3,269.5h-24.4v-76.9c0-20.8-4.7-31.1-14.1-31.1c-4.7,0-8.6,2.9-11.7,8.7c-3.1,5.8-4.6,13.3-4.6,22.5v76.9
		h-24.5V69.6h24.5v85.1h0.3c6.4-15.7,15.1-23.6,26-23.6c19,0,28.5,18.5,28.5,55.4V269.5z" style="fill:#367EF2;stroke:#FFFFFF;stroke-width:2;stroke-miterlimit:10;"/>
	<path class="st0" d="M421.9,213.1h-55.3c0.9,20.9,8.7,31.4,23.5,31.4c9.3,0,17.4-3.7,24.5-11v28.9c-7.6,6.9-17.7,10.4-30.1,10.4
		c-13.4,0-23.8-6.1-31.2-18.2c-7.4-12.1-11.1-29-11.1-50.7c0-21.6,3.9-39.1,11.8-52.6c7.9-13.5,17.8-20.2,29.8-20.2
		c11.9,0,21.2,5.8,27.9,17.4c6.7,11.6,10.1,27.5,10.1,47.8V213.1z M399,188.4c0-20.2-5.1-30.3-15.3-30.3c-4.2,0-7.9,2.8-11.2,8.3
		c-3.2,5.5-5.3,12.9-6.1,22H399z" style="fill:#367EF2;stroke:#FFFFFF;stroke-width:2;stroke-miterlimit:10;"/>
	<path class="st0" d="M588.6,269.5h-27.3l-8.8-43.4h-42.7l-8.7,43.4h-27.2l43.1-189.2h29.5L588.6,269.5z M546.5,195l-13.4-65.6
		c-0.9-4.2-1.5-9.6-1.8-16.5h-0.7c-0.3,5.5-1,10.9-2.1,16L515.2,195H546.5z" style="fill:#367EF2;stroke:#FFFFFF;stroke-width:2;stroke-miterlimit:10;"/>
	<path class="st0" d="M654.6,170.3c-3-2.8-6.6-4.2-10.9-4.2c-5.6,0-10,3.4-13.2,10.3c-3.3,6.8-4.9,16.2-4.9,28.2v65h-24.5V134.5
		h24.5v25.4h0.3c4-18.5,11.4-27.7,22.1-27.7c2.9,0,5.1,0.5,6.6,1.6V170.3z" style="fill:#367EF2;stroke:#FFFFFF;stroke-width:2;stroke-miterlimit:10;"/>
	<path class="st0" d="M721.2,268c-3.7,3.3-9.3,4.9-16.8,4.9c-17.8,0-26.7-15.1-26.7-45.2v-63.8h-13.8v-29.4h13.8v-29.7L702,93.6
		v40.9h19.1v29.4H702v56.9c0,14.4,3.5,21.6,10.6,21.6c2.7,0,5.6-1.3,8.5-3.9V268z" style="fill:#367EF2;stroke:#FFFFFF;stroke-width:2;stroke-miterlimit:10;"/>
	<path class="st0" d="M777.4,202.6c0-22.2,4.1-39.7,12.4-52.4c8.3-12.7,19.4-19.1,33.4-19.1c13.5,0,24.2,6.2,32.2,18.7
		c7.9,12.5,11.9,29.3,11.9,50.4c0,22.1-4.1,39.8-12.2,52.9c-8.2,13.1-19.2,19.7-33.1,19.7c-13.7,0-24.5-6.3-32.5-18.9
		C781.5,241.4,777.4,224.3,777.4,202.6z M802.3,202.1c0,26.9,6.8,40.4,20.5,40.4c13.1,0,19.7-13.8,19.7-41.5
		c0-26.4-6.6-39.6-19.8-39.6c-6.4,0-11.4,3.5-15,10.6S802.3,189.2,802.3,202.1z" style="fill:#367EF2;stroke:#FFFFFF;stroke-width:2;stroke-miterlimit:10;"/>
	<path class="st0" d="M935.4,100c-3.3-2.1-6.5-3.2-9.5-3.2c-8.4,0-12.6,7.5-12.6,22.5v15.1h19.1v29.4h-19.1v105.6h-24.5V163.9h-14
		v-29.4h14v-17.3c0-15.4,3.1-27.7,9.3-36.9c6.2-9.2,14.4-13.8,24.5-13.8c5.2,0,9.4,0.9,12.8,2.6V100z" style="fill:#367EF2;stroke:#FFFFFF;stroke-width:2;stroke-miterlimit:10;"/>
	<path class="st1" d="M1060.9,113.3h-42v48.6h38.6v33h-38.6v74.6h-25.1V80.4h67V113.3z" style="stroke:#FFFFFF;stroke-width:2;"/>
	<path class="st1" d="M1076,90.9c0-6,1.3-10.9,4-14.7c2.7-3.8,6.1-5.7,10.2-5.7c4.3,0,7.7,1.9,10.3,5.8c2.6,3.9,3.9,8.7,3.9,14.6
		c0,5.9-1.3,10.9-4,14.8c-2.7,4-6.1,5.9-10.3,5.9c-4.1,0-7.5-2-10.2-6C1077.3,101.7,1076,96.7,1076,90.9z M1077.8,269.5V134.5h24.4
		v135.1H1077.8z" style="stroke:#FFFFFF;stroke-width:2;"/>
	<path class="st1" d="M1204,269.5h-24.4v-75.4c0-21.8-4.9-32.7-14.7-32.7c-4.7,0-8.5,2.9-11.6,8.7c-3.1,5.8-4.6,13.3-4.6,22.3v77.1
		h-24.5V134.5h24.5V156h0.3c6.1-16.5,15.1-24.8,27-24.8c18.6,0,27.9,18.6,27.9,55.7V269.5z" style="stroke:#FFFFFF;stroke-width:2;"/>
	<path class="st1" d="M1306.1,254.6c0,25.1-4.4,44.4-13.3,57.9c-8.9,13.6-21.7,20.3-38.4,20.3c-11.3,0-20.3-2.6-27-7.8v-33.7
		c8.7,8.1,17.5,12.2,26.3,12.2c8.8,0,15.6-3.8,20.5-11.3c4.9-7.5,7.4-18,7.4-31.3v-11.2h-0.4c-5.9,15.4-14.7,23.1-26.4,23.1
		c-10.6,0-19-6.1-25.4-18.2c-6.4-12.1-9.5-28.4-9.5-48.7c0-22.7,3.5-40.9,10.5-54.4s16.2-20.3,27.6-20.3c10.3,0,18.1,6.5,23.2,19.4
		h0.4v-16.1h24.4V254.6z M1281.9,193.3c0-9-1.7-16.5-5-22.7c-3.4-6.1-7.6-9.2-12.7-9.2c-6,0-10.7,3.8-14.2,11.3
		c-3.5,7.5-5.2,18.1-5.2,31.7c0,11.8,1.7,21.1,5,27.9c3.3,6.8,7.8,10.2,13.3,10.2c5.6,0,10.1-3.5,13.6-10.4c3.5-6.9,5.2-15.9,5.2-27
		V193.3z" style="stroke:#FFFFFF;stroke-width:2;"/>
	<path class="st1" d="M1402.9,213.1h-55.3c0.9,20.9,8.7,31.4,23.5,31.4c9.3,0,17.4-3.7,24.5-11v28.9c-7.6,6.9-17.7,10.4-30.1,10.4
		c-13.4,0-23.8-6.1-31.2-18.2c-7.4-12.1-11.1-29-11.1-50.7c0-21.6,3.9-39.1,11.8-52.6c7.9-13.5,17.8-20.2,29.8-20.2
		c11.9,0,21.2,5.8,27.9,17.4c6.7,11.6,10.1,27.5,10.1,47.8V213.1z M1380,188.4c0-20.2-5.1-30.3-15.3-30.3c-4.2,0-7.9,2.8-11.2,8.3
		c-3.2,5.5-5.3,12.9-6.1,22H1380z" style="stroke:#FFFFFF;stroke-width:2;"/>
	<path class="st1" d="M1472.3,170.3c-3-2.8-6.6-4.2-10.9-4.2c-5.6,0-10,3.4-13.3,10.3s-4.9,16.2-4.9,28.2v65h-24.5V134.5h24.5v25.4
		h0.3c4-18.5,11.4-27.7,22.1-27.7c2.9,0,5.1,0.5,6.6,1.6V170.3z" style="stroke:#FFFFFF;stroke-width:2;"/>
	<path class="st1" d="M1538.9,268c-3.7,3.3-9.3,4.9-16.8,4.9c-17.8,0-26.7-15.1-26.7-45.2v-63.8h-13.8v-29.4h13.8v-29.7l24.4-11.2
		v40.9h19.1v29.4h-19.1v56.9c0,14.4,3.5,21.6,10.6,21.6c2.7,0,5.6-1.3,8.5-3.9V268z" style="stroke:#FFFFFF;stroke-width:2;"/>
	<path class="st1" d="M1551.7,90.9c0-6,1.3-10.9,4-14.7c2.7-3.8,6.1-5.7,10.2-5.7c4.3,0,7.7,1.9,10.3,5.8c2.6,3.9,3.9,8.7,3.9,14.6
		c0,5.9-1.3,10.9-4,14.8c-2.7,4-6.1,5.9-10.3,5.9c-4.1,0-7.5-2-10.2-6C1553,101.7,1551.7,96.7,1551.7,90.9z M1553.5,269.5V134.5
		h24.4v135.1H1553.5z" style="stroke:#FFFFFF;stroke-width:2;"/>
	<path class="st1" d="M1624.4,253.3v78.4h-24.5V134.5h24.5v20.6h0.3c6.4-16,15.5-23.9,27.3-23.9c10.7,0,19,6,25.1,18
		c6,12,9,28.4,9,49c0,22.6-3.5,40.6-10.5,54.2c-7,13.6-16.1,20.4-27.5,20.4c-10.3,0-18.1-6.5-23.4-19.5H1624.4z M1624.1,209.8
		c0,9.6,1.6,17.5,4.9,23.6c3.2,6.1,7.4,9.2,12.6,9.2c6.1,0,10.9-3.8,14.3-11.5c3.4-7.7,5.1-18.5,5.1-32.5c0-24.7-6-37.1-18-37.1
		c-5.6,0-10.1,3.4-13.6,10.3c-3.5,6.8-5.3,15.6-5.3,26.4V209.8z" style="stroke:#FFFFFF;stroke-width:2;"/>
	<path class="st1" d="M1701.3,233.3c8.4,8.2,16.6,12.3,24.7,12.3c10.1,0,15.2-4.4,15.2-13.1c0-6.2-4.2-11.4-12.5-15.5
		c-10.4-5.2-17.6-11-21.5-17.4c-3.9-6.4-5.8-15-5.8-26c0-13.3,3.3-23.7,10-31.2c6.7-7.5,15.4-11.3,26.3-11.3
		c7.7,0,15.1,1.8,22.2,5.5v31c-6.5-6.2-13.7-9.3-21.6-9.3c-3.9,0-7,1.1-9.4,3.4c-2.4,2.2-3.6,5.2-3.6,8.9c0,6.2,3.5,11.2,10.6,15
		c7.6,4.1,13.3,7.8,17.1,11.1c3.8,3.3,6.7,7.7,8.7,13.2c2,5.5,3,11.8,3,18.9c0,13.9-3.5,24.7-10.4,32.4
		c-6.9,7.7-16.2,11.5-27.8,11.5c-9.1,0-17.5-2.3-25.3-7V233.3z" style="stroke:#FFFFFF;stroke-width:2;"/>
  </g>
</svg>
